<svg width="57" height="58" viewBox="0 0 57 88" fill="none" xmlns="http://www.w3.org/2000/svg">
<path fill-rule="evenodd" clip-rule="evenodd" d="M4 87.5C2.067 87.5 0.5 85.877 0.5 83.875L0.499996 4.125C0.499996 2.12297 2.067 0.5 4 0.5C5.93299 0.5 7.5 2.12297 7.5 4.125L7.5 83.875C7.5 85.877 5.933 87.5 4 87.5ZM28.5 87.5C26.567 87.5 25 85.877 25 83.875L25 4.125C25 2.12297 26.567 0.499999 28.5 0.499999C30.433 0.499999 32 2.12297 32 4.125L32 83.875C32 85.877 30.433 87.5 28.5 87.5ZM53 47.625C51.067 47.625 49.5 46.002 49.5 44L49.5 4.125C49.5 2.12297 51.067 0.499998 53 0.499998C54.933 0.499998 56.5 2.12297 56.5 4.125L56.5 44C56.5 46.002 54.933 47.625 53 47.625Z" fill="white"/>
</svg>
