<svg width="87" height="56" viewBox="0 0 87 56" fill="none" xmlns="http://www.w3.org/2000/svg">
<path fill-rule="evenodd" clip-rule="evenodd" d="M0 3.5C0 1.567 1.62297 0 3.625 0H83.375C85.377 0 87 1.567 87 3.5C87 5.433 85.377 7 83.375 7H3.625C1.62297 7 0 5.433 0 3.5ZM0 28C0 26.067 1.62297 24.5 3.625 24.5H83.375C85.377 24.5 87 26.067 87 28C87 29.933 85.377 31.5 83.375 31.5H3.625C1.62297 31.5 0 29.933 0 28ZM39.875 52.5C39.875 50.567 41.498 49 43.5 49H83.375C85.377 49 87 50.567 87 52.5C87 54.433 85.377 56 83.375 56H43.5C41.498 56 39.875 54.433 39.875 52.5Z" fill="white"/>
</svg>
